<?xml version="1.0" encoding="UTF-8"?>
<svg id="Layer_1" xmlns="http://www.w3.org/2000/svg" width="1519.25" height="669.4" version="1.1" viewBox="0 0 1519.25 669.4">
  <!-- Generator: Adobe Illustrator 29.6.1, SVG Export Plug-In . SVG Version: 2.1.1 Build 9)  -->
  <path d="M76.99,260.17c3.29.36,4.58,1.48,7,0,4.88-1.73,4.53-5.48,8-8,4.25-3.09,8.8-2.45,14-5,1.8-.88,2.4-4.22,4-5,3.67-.34,7.33-.67,11-1,3.15-1.34,3.71-3.45,9-4,9.18,8.67,7.39,2.11,18,1v1c-1.93,1.54-2.78,2.46-2,4v1c4.93-3.03,4.39-4.11,11-4,1,2.67,2,5.33,3,8,4.83-1.37,7.25-1.19,13,1-.86,3.45-1.76,4.39-2,9,5.06-.4,4.11,1.26,10,2,1.33-2.67,2.66-5.33,4-8,3.31,2.42,2.99,4.97,8,6,1-1,2-2,3-3,.83,3.25-.49,1.53,2,3,1.12-2.87.17-1.84,3-3,2.82,9.29,9.91,4.26,18,7,1.66.56,3.95,3.71,6,4,3.53.5,5.46-3.53,8-4,3.26-.61,2.8,1.45,6,2v-2c-.78-1.07-1.49-3.69-2-5h4c2.79,2.16,9.73,2.56,14,3,1-2.27.75-2.77,3-4,1.12,4.53,4.29,5.22,7,8,4.92.22,6.09.66,10,0,.96-1.91,1.4-2.75,3-4v-5c7.04,1.54,4.67,6.63,8,9,.57-7.2.91-8.26,4-13,5.12,1.03,9.35.31,15,0v1c-1.62,1.35-1.12.64-2,3,2.07,1.28,2.3,2.08,5,3,1.56,1.1,4.32,2.36,8,3,.33-1.67.66-3.33,1-5h1c3.73,3.98,6.73,2.38,12,1,.96-1.77,1.26-1.68,2-4,.75-1.07.6-.95,1-3h4v3c1.76.63.97.19,2,1,2.69-.8,3.7-1.84,6-3,1.19,5.29,3.37,5.65,6,9,3.1-1.1,5.73-.69,9,0v-3c-2.95-3.09-4.38-8.68-5-14h2c2.51,2.99,9.68,5.07,13,7,.73-2.46,1.44-3.5,3-5v-4c2.71-.32,4.4-1.68,6-2,4,.33,8,.67,12,1h1c1.42-.86,1.85-4.24,4-5,5.11-1.81,12.48,2.3,16,1,3.82-1.41,3.69-5.23,10-6,1.36,3.35,3.3,3.28,7,4,6.35-9.19,12.94-3.77,19-7,0,0,3.56-4.72,4-5,3.11-1.98,8.78-4.05,12-5,4.67-.33,9.33-.67,14-1,1.33-1.33,2.66-2.67,4-4,.34.34.67.67,1,1,1.9,1.34.87,1.28,4,2,3.21-6.65,7.83-1.59,15-1,1.61-4.9,13-12.67,19-13,3.09-2.1,8.5-.53,12,0v-3c3.68-.76,2.81-1.46,7-2v-4c4.93-1.77,5.14-3.95,13-4,4.11.98,3.11-2.39,6-5,3.1-2.79,9.83-4.69,14-6h5v-2c3.4-3.27,5.34-4.65,12-5v-4c1-.33,2-.67,3-1,5.27-3.54,6.42,1.88,12,0,3.87-1.3,2.69-5.78,8-7,2.24,1.83,4.73,3.34,8,4,4.06-3.26,8.16-.1,13-3,1-1.67,2-3.34,3-5,7.38-5.63,17.86-8.24,23-16-.33-.34-.67-.67-1-1h-3v-3c2-2,4-4,6-6,2.21.89,6.94,3.22,8,2,1.26-1.87.72-4.71,2-7,1.9-3.4,8.37-5.81,10-9,.96-1.88-1.45-7.2,1-10,1.16-1.32,3.94-1.48,5-3,2.55-3.63,6.46-9.35,8-13-.34-1-.67-2-1-3,1.09-2.91,3.61-4.82,5-7,.33-1.67.67-3.33,1-5,1.65-2.58,6.76-2.93,9-5,4.48-4.14,7.08-11.46,12-15,2.22-1.6,6.5-1.87,8-4,.97-1.38-.54-4.75-1-5,1.54-1.39,4.82-1.33,6-3,3.26-4.6,3.82-9.09,7-14,1.33-.67,2.67-1.33,4-2,2.32-4.24,1.86-16.31,5-19,.38-.32,9.75,1.21,12,0,1.84-.99,1.52-4.94,3-6,.6-.43,12.95.09,14,0,2.12,3,3.41,4.87,5,9,28.71-12.74,99.61,23.31,130,34,5.41,2.13,11.81,7.68,17,10,4.15,1.85,8.12.99,12,3,2.08,1.08,5.03,5.14,7,6,2-.33,4-.67,6-1,.85.43.58,2.74,4,4,1.35-1.62.64-1.12,3-2,10.18,14.47,35.01,18.25,52,26,2.18,1,3.82,3.98,6,5,4.04,1.89,6.66,1.16,11,3,5.16,2.19,11.47,7.59,17,10,4.82,2.1,9.14,1.54,14,4,8.87,4.49,19.52,11.87,29,16,3.48,1.51,6.17.3,10,2,6.5,2.88,13.36,9.08,20,12,46,20.22,89.83,41.74,131,67,2.33.33,4.67.67,7,1,5.82,2.59,12.74,7.77,18,11,4,1.33,8,2.67,12,4,40.82,23.79,83.31,46.03,118,76,1.39,1.2.86,3.46,2,5,6.2,8.38,16.07,15.07,22,24,3.58,5.39,4.32,11.54,8,17,1.75,2.6,6.8,3.7,9,6,2.25,2.34,2.17,6.18,4,9,2.35,3.62,6.16,7.2,9,11,6.6,8.85,16.63,15.48,23,25,8.06,12.04,12.22,26.2,20,39,17.94,26.88,17.75,43.7-1,75-20.17,32.47-63.25,61.84-98,80-11.01,5.75-21.61,8.38-33,14-31.3,15.45-66.88,26.08-104,36-11.96,3.2-21.57,2.06-34,5-27.14,6.41-59.17,8.82-86,15h-18c-11.06,2.42-24.63.32-37,3-16.52,3.64-36.47,2.95-54,3-13.72,2.94-59.3,2.99-73,0h-39c-12-.66-28.4-.46-40-3-12.8-2.8-26.59.5-38-2-12-.34-24-.67-36-1-6.5-1.45-14.98-.21-23-2-40.47-9.04-90.32-5.91-130-15-14.33-.67-28.67-1.33-43-2-12.58-2.74-30.19,2.03-44-1-13.1-2.88-29.38-3.12-45-3-14.59.11-35.86,2.76-49,0-59.17-.46-116.61-1.01-176-2-14.02,0-31.75,1.67-44-1-10-2.19-23.23.92-32-1h-33c-26.85-5.92-55.92-2.4-81-10-20.41-6.19-42.13-17.27-58-29-26.62-19.68-41.38-52.29-52-88-1.88-6.32-.49-11.05-2-18-2.88-13.26-4.49-36.68-1-51,4.68-19.2,8.71-37.3,16-54,3.38-7.75,8.9-18.06,14-25,3.42-4.65,12.91-6.46,15-12,2.39-6.34.17-11.44,2-18,2.49-8.89,6.6-19.37,9-28,2.09-7.54.84-11.92,4-18,5.64-10.85,14.81-4.73,15-23h0Z" fill-rule="evenodd"/>
</svg>