<?xml version="1.0" encoding="UTF-8"?>
<svg id="Layer_1" xmlns="http://www.w3.org/2000/svg" width="1492.97" height="658.06" version="1.1" viewBox="0 0 1492.97 658.06">
  <!-- Generator: Adobe Illustrator 29.6.1, SVG Export Plug-In . SVG Version: 2.1.1 Build 9)  -->
  <path d="M750.26,0c5.33,1,10.67,2,16,3,12.23-1.66,30.56-4.51,44-1,16.71,4.36,32.67,8.48,45,14,4.05,1.81,8.56-.03,13,2,3.77,1.72,9.75,6.28,14,8,.98.4,2.55-1.19,5,0,1.53.75,3.94,3.34,6,4,1-.33,2-.66,3-1,1.43.6,4.38,4.21,6,5,4.67.67,9.33,1.33,14,2,.76.49.95,3.52,2,4,.12.05,8,0,8,0,6.43,3.79,30.16,18.9,37,17,4.3,1.87,7.82,6.16,12,8,4.1,1.8,8.01.99,12,3,4.7,2.36,11.87,7.11,17,9h6c3.61,1.55,7.33,6.29,11,8,5.18,2.42,17.97,3.41,22,6,.33,1,.67,2,1,3,2.12,1.48,6.22,4.21,8,5,1-.33,2-.67,3-1,3.65,1.57,7.86,5.54,11,7h6c5.86,2.17,12.87,7.81,18,11,2.47,1.54,5.14.76,8,2,3.57,1.55,6.39,5.55,10,7,2.33.34,4.67.67,7,1,2.18.97,3.33,3.68,5,5,2.35,1.85,5.03.5,8,2,3.91,1.98,8.93,7.12,13,9h5c2,2,4,4,6,6,3.32,1.7,6.93-1,9,0,1.56.76,2.56,5.05,4,6,4.1,2.71,15.9,3.75,19,6,.33,1.33.67,2.66,1,4,1.87,1.53,5.14.58,7,2,3.23,2.47,8.18,6.28,12,8,2.33.34,4.67.67,7,1,1,1.67,2,3.33,3,5,22.74,13.84,49.51,20.4,71,34,2.98,1.89,9.36,1.28,12,3,.76.5,1.02,3.43,2,4,5.15,3.01,9.46,2.19,15,5,3,3,6,6,9,9,4.72,2.82,10.57,1.84,15,5,.81.58,1.04,3.33,2,4,3.87,2.69,9.39,2.92,13,6,1.16.99.65,4.12,2,5,2.33.33,4.67.66,7,1,1.64.86,1.71,3.85,3,5,1.67.33,3.34.67,5,1,2.68,1.78,4,6.37,6,9,4.8,6.31,14.15,9.55,19,16,2.51,3.33,4.12,7.08,7,10,1.67,1,3.34,2,5,3,2.96,4.67,5.71,15.36,9,19,5.04,5.58,14.54,7.9,19,14,16.82,23.01,32.56,41.98,44,71,2.57,6.53,8.41,13.54,11,20,4.52,11.27,2.83,34.47-1,45-4.08,11.22-12,21.62-18,31-8.38,13.1-16.99,26.67-29,36-65.27,54.69-119.84,69.37-203,91h-9c-18.19,4.69-40.56,7.13-60,12-14.29,3.58-29.67,1.68-43,5-11.67,1-23.34,2-35,3-14.67,3.4-34.85.33-51,4-14.66,3.33-41.43,6.21-56,4-15,1-30,2-45,3-16.75-1.68-50.47-.57-75,0-22.8.54-53.16-2.44-75-2-6.23.13-20.86-.5-27-2-11.66-2.85-24.53.56-35-2h-19c-6.33-.66-12.67-1.33-19-2h-25c-18.8-4.21-37.36-.14-55-4h-19c-19.32-4.23-45.35-2.7-67-3-8.98-1.99-27.03-2.19-36,0h-23c-19.66,1-39.34,2-59,3-13.84,3.12-28.62,1.98-41,5-6.75,1.65-12.14-.97-17,0-5.52,1.1-15.25-.5-22,1-21.45,4.77-48.4,3-73,3-23.45,0-58.1,2.87-78-2h-16c-22.35-5.1-48.72-3.86-64-16-2.47-1.96-4.29-6.17-7-8-12.52-8.43-29.91-15.52-39-27-6.02-7.6-13.7-15.16-19-23-7.3-10.8-10.19-22.8-15-36-4.92-13.49-10.18-29.15-14-44-2.38-9.26-1-25.85,1-34v-18c2.19-9,2.98-20.74,6-30,5.68-17.4,14.49-32.41,22-47,2.52-4.9,2.06-9.75,5-14,3.6-5.2,12.13-5.95,15-12-.97-2.1,5.26-20.28,7-24,1.59-3.39-.15-8.52,2-12,.92-1.49,4.07-2.87,5-5,1.82-4.17,1.17-9.85,4-13,13.95-15.55,34.18-17.6,58-23,1.33.33,2.67.67,4,1,3.24-.91,5.88-6.03,9-7,5.36-1.67,9.83,1.74,15-1,4.58-2.43,9.02-9.35,17-8,10.23,1.73,19.08.17,25-1,3.33.34,6.67.67,10,1,9.48.85,17.52-1.87,26-1,1.06.11,7.88,2.16,9,2,2.22-.32,5.81-3.38,8-4,10.33-2.9,14.05,3.35,24,1,11.78-2.78,26.75-7.26,37-9,3.42-.58,5.43,3.33,10,2,14.24-4.15,39.48-1.22,58-6,3,.34,6,.67,9,1,4.82-1.24,11.46-6.14,16-8,7-1,14-2,21-3,6.03-1.98,14.75-4.17,21-7,1.78-.81,3.88-3.37,6-4,6.55-1.94,12.33,1.27,17,0,2.45-.67,6.07-3.13,9-4h5c1.67-1.67,3.33-3.34,5-5,3-1,6-2,9-3,1-1.33,2-2.67,3-4,2.33-.33,4.67-.66,7-1,1-1.67,2-3.33,3-5,4.18-2.85,9.16-2.69,14-5,7.52-3.58,18.54-13.72,26-18,6.33-3.62,12.25-4.01,18-8,1.31-.91.94-2.8,2-4,2.28-2.59,6.13-2.89,9-5,2-2.66,4-5.33,6-8,3.84-2.62,8.49-1.75,13-4,3.8-1.9,11.85-5.87,15-9,2.08-2.07,2.54-6.37,5-8,7.38-4.89,16.46-8.38,22-15,2.29-2.73,2.84-6.11,5-9,5.77-7.72,16.73-12.6,22-21,1.94-3.09,1.22-6.51,3-10,1.43-2.8,5.55-5.47,7-8,1-3,2-6,3-9,2.98-3.34,8.12-5.59,11-9,2.78-3.29,4.72-9.33,8-12,3.38-2.74,7.56-3.42,10-7,2.26-3.31,2.3-8.16,5-11,2.75-2.88,20.78-10.79,25-12,5.21-1.5,8.75.75,12-2h0Z" fill-rule="evenodd"/>
</svg>