<?xml version="1.0" encoding="UTF-8"?>
<svg id="Layer_1" xmlns="http://www.w3.org/2000/svg" width="1568.4" height="1012.73" version="1.1" viewBox="0 0 1568.4 1012.73">
  <!-- Generator: Adobe Illustrator 29.6.1, SVG Export Plug-In . SVG Version: 2.1.1 Build 9)  -->
  <path d="M654,37.35v4c1,.33,2,.66,3,1,2.65,1.36,3.87-1,8,0,4.81,1.17,12.14,4.89,17,6,4-.33,8-.67,12-1,2.44.54,8.32,2.5,10,3h19c10.63,1.84,29.77,7.48,44,10,6.57,1.16,19.46.33,27,2h13c3.48,1.02,8.12,4.84,12,6,5.33-.34,10.67-.67,16-1,9.26,2.87,15.14,3,27,3v3c1.83,1.28,1.71,1.97,4,3,5.22,4.21,16.64,2.08,23,1-.57,6.44,5.13,6.59,14,6,4.12,2.75,8.65.17,13,1,3.67.7,10.23,4.31,14,5,7.55,1.39,16.52-3.39,26-1,8.77,2.22,16.52,7.94,25,11,2.71.98,7.36-.06,9-1,1,1.33,2,2.67,3,4,2.98,1.55,5.44.43,8,2,4.27,2.63,9.66,8.53,12,13v4c1.27,1.83,7.51,5.92,9,8,2.88,4.02,4.11,9.16,8,12,4.05,2.96,8.08,4.08,10,9,6.71,17.16,3.22,39.23-2,55-.67,6.67-1.33,13.34-2,20-3.81,15.45-4.4,27.2-8,42-1.67,6.88,1.1,17.65,2,21-.33,2.33-.67,4.67-1,7,.42,1.67,3.45,5.34,4,7,.34,7,.67,14,1,21,1.08,4.17,3.47,5.88,4,11h4c2.71,4.26,6.64,14.42,11,17,3.58,2.12,7.65,2.73,11,5,1.88,1.27,4.67,9.76,8,6,.67,2,1.33,4,2,6,1.28,1.51,3.2-.14,5,1,.67,1.33,1.33,2.67,2,4,2.66,2.08,8.74,2.25,11,4,.33,1.33.67,2.67,1,4,1.61,1.98,3.97.36,6,2,.34,1.33.67,2.67,1,4,0,0,9.72,7.8,10,8,8.62,6.2,17.12,10.1,26,16,.67,1.33,1.33,2.67,2,4,2,.34,4,.67,6,1,1,1.67,2,3.33,3,5h6c1,1.67,2,3.34,3,5,3.22,1.84,8.19,1.84,11,4v2c1.37,1.28,3.38.86,5,2,1.42,1,1.74,4.01,3,5,1.91,1.5,5.03.73,7,2,5.28,3.41,10.78,8.85,16,12,2,.33,4,.67,6,1,2.11,1.2,6.48,8.24,9,10,4.3,3.02,9.8,3.03,14,6,9.53,6.74,19.61,14.32,29,21,3.94,2.8,8.95,2.52,13,5,5.21,3.18,8.67,9.83,14,13,32.88,19.56,65.38,38.23,95,61,4.81,3.7,10.91,4.57,16,8,10.9,7.35,22.9,14.31,34,22,3.33,3.33,6.67,6.67,10,10h4c1.56,1.16,2.32,4.73,4,6,20.28,15.35,31.56,33.24,48,52,4.01,4.58,13.42,3.97,18,10,8.17,10.76,17.85,21.58,25,33,9.15,14.61,12.02,30.87,19,48,2.84,6.97,7.56,14.44,10,22,10.13,31.45-14.32,74.62-26,92-4.98,7.42-9.02,15.72-16,21-28.93,21.87-59.53,44.75-95,60-34.7,14.91-74.65,21.46-112,34-11.37,3.82-25.28,3.32-36,6-5.67.34-11.34.67-17,1-27.23,6.36-60.87,3.36-89,10h-17c-7.97,1.77-19.82,1.08-28,3-15,.34-30,.67-45,1-8.44,1.86-21.32-1.13-31,1-21.33,4.7-59.73,1-84,1h-59c-25.55-5.71-52.7,1.73-77-4h-13c-15.72-3.52-36.1-1.26-52-5-11.67-.33-23.34-.67-35-1-11.93-2.68-26-1.06-39-4-30.2-6.82-66.93-6-102-6-60.66,1.67-121.34,3.34-182,5-10.25,2.27-22.56-.52-34,2-10.28,2.27-22.63-.5-34,2-16.87,3.7-37.84,2-57,2-45.26,0-98.43,3.34-136-6-6.33-.67-12.67-1.33-19-2-53.32-14.35-87.98-42.25-111-87-6.02-11.69-7.17-24.32-11-38-2.59-9.24-6.79-19.04-9-29,.67-6.33,1.33-12.67,2-19-.27-6.29-1.55-11.42,0-18,.34-8.66.67-17.33,1-26,6.82-28.81,12.93-67.59,32-84-.64-15.84,3.09-37.65,5-51,.66-4.63-3.1-6.29-4-9-.11-.33-1-28-1-28,1.31-6.16,5.09-11.56,7-16,2.66-6.18-1.57-10.1,0-17,2.45-10.78,6.5-20.01,9-30,3.56-14.19-1.48-25.62,2-40,1.5-6.2,2.37-14.68,5-21,.57-1.37,3.6-3.88,4-5-.33-2.67-.67-5.34-1-8,1.32-4.35,6.98-4.97,8-7-.34-2.33-.67-4.67-1-7,1.04-4.24,4.24-13.25,5-17,.81-3.97-3.17-3.12-2-7,1-.67,2-1.33,3-2,1.11-2.84-.1-15.73,2-20h2c.67-4.33,1.33-8.67,2-13,1-1,2-2,3-3-.34-3.33-.67-6.67-1-10,1-.67,2-1.33,3-2,1.04-2.43,1.57-9.78,2-12-.67-4-1.33-8-2-12,0,0,2.85-1.49,3-2-.33-2.33-.67-4.67-1-7,2.77-7.14,6-30.8,4-42,2.19-6.21,4.96-17.33,5-27-.33-5.67-.67-11.34-1-17,4.17-15.74,4.13-39.39,8-53v-10c2.13-9.22,3.92-18.99,6-28v-10c7.81-30.65,11.31-66.52,21-95,6.08-17.89,7.56-42.93,31-43-.45-3.26-1.77-4.71-1-6,3.68-3.5,9.88-10.75,16-11,8.74-7.52,14.78,4.23,22,2,.33-1,.66-2,1-3,5.35-3.01,9.42,1.55,15,0,1.14-.32,5.34-2.63,7-3,4.94-1.09,6.07,3.17,10,2,.67-1,1.33-2,2-3,5.22-1.96,21.62,4.83,26,6,6.33-.33,12.67-.67,19-1,3.45.83,7.78,3.22,11,4,2.4.59,8.45-1.67,13,0,4.63,1.7,12.3,3.85,16,5,1.67-.33,3.34-.67,5-1,7.59,1.65,22.05,7.61,34,5,5.69-1.24,16.71-2.93,22-3,1.34-.02,7.92,1.98,10,3,.33,1,.67,2,1,3,0,0,16.15-4.56,18-5,8.86-2.11,21.21,2.58,26,6,.67,1.33,1.33,2.67,2,4,4.33-.33,8.67-.67,13-1,6.36,2.46,6.23,5.91,14,2-.34,1.33-.67,2.66-1,4,4.55.41,12.94-1.71,18,1,.98.53.15,2.4,2,3,1.63-1.81,16.09-6.83,20-7,4.94,7.17,8.43-.53,12,5h-1c-.86.65-3.15,1.34-4,2,4.02.08,18.9-2.43,24-1,1.01.28,4.59,2.71,6,3,3.15.66,29.25-.13,32-1,.33.67.67,1.33,1,2,3.16.74,10.08-2.47,12-3h23c2.82,1.1,4.28,5.65,8,7,4.77-2.83,27.45-2.94,34-1,1.12-3.36,1.13-3.32,5-4h0Z" fill-rule="evenodd"/>
</svg>