<?xml version="1.0" encoding="UTF-8"?>
<svg id="Layer_1" xmlns="http://www.w3.org/2000/svg" width="1552.15" height="1000.33" version="1.1" viewBox="0 0 1552.15 1000.33">
  <!-- Generator: Adobe Illustrator 29.6.1, SVG Export Plug-In . SVG Version: 2.1.1 Build 9)  -->
  <path d="M1007.68,345h4c1.01,1.68,3.36,3.27,4,5v7c2.12,4.4,19.68,13.03,26,14v4c4.84,3,8.63,6.6,16,7v3c2.92,1.84,2.9,2.74,8,3,1.07-.75.95-.6,3-1,4.38,6.45,10.85,14.31,21,15v4c13.68,6.39,25.91,19.4,40,28,21.61,13.19,47.69,24.88,65,39,.69.56,10.72,6.87,11,7,1.33-.33,2.67-.67,4-1,.97.77-.15,4.13,1,5,3.91,2.95,8.65,2.21,13,5,2.5,1.61,6.94,8.22,10,10,4.89,2.84,9.47,2.98,14,6,2.81,1.88,5.93,6.45,9,8h5c2,2.66,4,5.33,6,8,2.66.34,5.33.67,8,1,8.76,3.49,17.05,11,25,15h4c2.75,1.51,3.66,6.09,6,8,2.97,2.43,8.75,6.71,12,8h6c2.22,1.48,4.7,7.27,8,9,3,.67,6,1.33,9,2,29.77,23.96,64.86,41.52,94,66,4.71,3.96,12.08,13.8,16,19,1.89,2.52,6.16,3.6,8,6,2.04,2.65,1.8,6.58,4,9,2.98,3.27,8.43,5.46,11,9,2.15,2.96,3.05,11.91,5,14,2.66,1,5.33,2,8,3,2.52,2.51,1.11,6.63,3,10,2.33,1.67,4.67,3.33,7,5,2.76,3.9,3.35,7.92,6,12,2.67,2.33,5.33,4.67,8,7,4.74,6.36,9.78,14.73,13,22,5.34,12.04,6.97,26.07,13,38,7.54,14.92,15.07,36.82,7,57-18.19,45.53-72.3,83.65-117,103-25.58,11.08-53.49,17.65-82,26-13.87,4.07-26.53,3.31-41,7-25.99,6.62-57.71,6.31-85,13-8.33.34-16.67.67-25,1-7.36,1.71-19.47,2.15-27,4h-25c-8.84,1.97-19.76-.28-30,2-27.19,6.06-68.11,2-99,2-19.02,0-43.97,3.16-61-1-14.6-3.57-33.47,1.31-47-2h-18c-9.29-.83-22.48-.91-31-3h-13c-12.87-2.95-28.52-.65-43-4-26.35-6.1-57.72-4.46-84-11-6-.33-12-.67-18-1-25.37-5.84-55.93-3.61-82-10-9.33-.33-18.67-.67-28-1-12.08-2.69-50.88-3.96-63-1-18.84.46-41.41-1.46-59,1-42.33.33-84.67.67-127,1-113.89,0-238.35,9.91-296-47-22.46-22.17-30.21-43.94-41-78-3.53-11.15-8.24-24.69-6-39,1.21-7.74-2-21.83,0-30,2.89-11.78-.12-22.12,3-33,5-17.43,10.12-34,17-50,2.06-4.79,6.31-9.06,8-14-2.55-1.45-1.13.22-2-3,2.99-1.31,4.74-1.74,6-5-8.81-10.75,3.94-18.93,2-31-.89-5.56,1.79-8.38,3-14,.56-2.59-1.56-6.25-2-8-2.04-8.19,1.81-16.29,3-21,.98-3.89-1.79-7.49-1-11,1.39-6.16,6.97-15.26,5-25-2.2-10.88,2.97-28.41,5-40,1.93-11.03,1.08-23.83,4-36-.34-4.33-.67-8.67-1-13,1.37-6.21,5.11-16.82,7-24,1.45-5.5-.64-11.76,0-15,1.07-5.42,3.6-14.14,5-20-.33-4.33-.66-8.67-1-13,4.63-16.7,7.78-38.87,13-60,1.48-5.98-2.5-12.98-2-16,.37-2.22,4.35-5.8,5-8-.34-3-.67-6-1-9,3.26-14.09,9.18-32.94,10-49-.16-.99-2.54-1.83-2-4,1-1,2-2,3-3,.76-3.12-1.51-7.11-1-10,.82-4.65,3.71-13.46,5-18-.34-4.33-.67-8.67-1-13,.63-2.18,3.47-4.8,4-7-.34-2.67-.67-5.33-1-8,1.81-3.89,7.04-11.6,6-15-1.38-4.64-2.01-4.71-3-10,2.62-1.36,4.77-1.98,6-5-1.77-1.92-1.89-3.14-2-7h2c.97.25.38.79,1,0,.8-1.18.77-1.68,1-4-3.25-.83-1.53.49-3-2,6.53-4.7,1.01-8.72,2-15,1.44-9.12,11.23-8.68,4-22,2.72-1.71,2.5-2.53,7-3-.31-2.94-2.41-4.37-2-6,1.33-1,2.66-2,4-3-.33-1.67-.67-3.33-1-5,2.33-2.34,4.67-4.67,7-7,1.94-3.86,0-7.36,2-11,1-.33,2-.67,3-1,1.62-2.17.63-4.61,2-7h2c-.33-2-.66-4-1-6,.71-1.41,2.96,0,4-1v-1c2.13-2.83,1.58-9.08,4-12,2.02-2.44,3.62-1.19,5-5-1.67-2-3.34-4-5-6,1.63-2.15,1.4-5.58,3-8,1.09-1.65,3.6-1.65,5-3,2.46-2.38,4.13-7.2,7-9,2.19-1.37,4.08-.56,6-2,.34-1,.67-2,1-3,6.69-5.65,15.26-.28,23-4C203.22-.4,227.84.4,251.68,0c3.67-.06,9.2,4.36,13,5,8.58,1.46,16.18-3,27,0,.33.34.67.67,1,1,.32.09.26,1.6,2,1,.33-1,.67-2,1-3,6.33.67,12.67,1.33,19,2,1.55-.15,6.85-2.03,10-1,2.64.86,6.05,4.14,9,5,10.88,3.18,27.46-.91,33,3,1.92-1.24.45-3.86,5-3,2.28.43,5.74,3.44,8,4,6.91,1.73,15.61-2.49,24,0,5.55,1.65,12.3,6.24,19,8,2.56.67,26.74,1.05,27,1,1.19-.24,5.26-1.86,8-1,5.43,1.7,12.25,6.36,18,8,9.67-.33,19.33-.67,29-1,8.96,2.04,18.48,5.56,26,8h10c7.13,1.62,16.52,2.43,23,4,15.11,3.67,26.72-5.01,43-1,9.62,2.37,19.93,7.27,30,10,14.86,4.03,24.46,1.04,37,3,7.53,1.18,19.85,5.08,27,7,3.88,1.04,8.31-1.51,14,0,3.91,1.04,8.73,4.16,13,5,6.28,1.24,14.78-1.93,22,0,5.99,1.6,16.55,9.14,26,6,2.82-.94,25.27-6.55,30-6,11.02,1.3,18.69,11.17,28,15,5.64,2.32,10.83-.4,18,2,6.89,2.31,12.16,8.82,18,12,7.65,4.17,31.53,9.63,41,11,4.39.64,10.27-5.52,18-3,6.18,2.02,13.22,7.97,19,10h11c3.28,1.38,6.64,6.41,10,8,6.31,3,15.71.6,22,4,10.21,5.53,14.46,13.67,22,21,3.18,3.09,9.82,4.07,12,8,1.63,2.93,1.15,17.21,3,23,5.13,16.07,5.35,19.76,2,38,.34,2.66.67,5.33,1,8-3.7,10.99-9.84,33.43-9,40-1,1.82-4.26,3.91-5,6-2.57,7.27-.03,14.31-2,21-1.54,5.2-6.03,12.7-7,17-.98,4.34,3.41,9.31,2,15-2.04,8.23-2.6,14.42-2,24h0Z" fill-rule="evenodd"/>
</svg>