<?xml version="1.0" encoding="UTF-8"?>
<svg id="Layer_1" xmlns="http://www.w3.org/2000/svg" width="1750.04" height="855.91" version="1.1" viewBox="0 0 1750.04 855.91">
  <!-- Generator: Adobe Illustrator 29.6.1, SVG Export Plug-In . SVG Version: 2.1.1 Build 9)  -->
  <path d="M687.48,0c7.1,1.17,18.81-1.02,27,1,13.74,3.39,30.63,3.61,45,8,25.66,7.84,51.8,15.06,73,28,16.21,9.89,32.25,20.19,48,31,6.59,4.52,10.51,12.15,20,14,5.17-5.88,20.14-5.63,28-3,29.04,9.72,30.37,12.07,41,40,2.03.93,5.79,3.39,7,2,5.18-2.03,7.93-7.41,14-9,15.37-4.03,21.74,10.39,29,15,4.33,1,8.67,2,13,3,4.37,1.67,10.87,5.18,15,8,7.29,4.97,15.51,15.31,20,23,2.09,3.58,1.65,8.85,4,12,2.65,2.55,6.81,4.05,11,5,2.66-2.67,5.33-5.34,8-8,11.88-.12,21.06.31,28,5,3.6,2.43,5.52,7.15,10,9,9.56,3.94,19.41,7.32,25,15,3.61,4.95,5.63,16.03,11,19,6.74,4.17,17.19-1.65,25,0,9.69,2.05,20.64,2.51,28,7,8.89,5.43,17.22,15.55,22,25,3.13,6.19,3.85,17.95,11,20,3.91,2.34,11.83-.07,18,0,8.71.1,19.73,1.03,27,4,14.68,6,30.58,19.58,39,32,4.28,6.32,3.61,16.72,13,18,17.61-12.79,53.88,7.54,60,17,1.67,5.67,3.33,11.34,5,17,24.03,10.47,46.24,24.68,68,38,12.43,7.61,26.44,11.35,39,19,10.26,6.25,22.46,11.11,33,18,9.83,6.43,20.22,14.7,30,21,13.7,8.82,35.55,25.48,45,38,4.79,6.35,12.03,18.42,18,23,6.52,4.99,14.47,8.09,21,13,8.16,6.13,13.55,16.11,21,23,4.29,3.98,10.45,5.3,14,10,10.59,14.03,17.53,29.27,27,45,11.49,19.09,31.26,50.79,16,81-33.6,66.54-121.09,97.83-195,125-23.03,8.46-48.64,11.59-73,18-10,1.33-20,2.67-30,4-18.67,4.71-41.24,5.28-61,10-6.33.33-12.67.67-19,1-13.2,3.06-31.08,1.75-45,5h-14c-19.37,3.94-42.91,2.75-63,3-10.2,2.3-25.09.76-37,1-16.39.32-36.05,1-54,1-21.95,0-53.17,2.61-70-1-14.8-3.18-37.5,1.2-48-1h-26c-17.93-4.1-38.67-.96-56-5-9.67-.33-19.33-.67-29-1-33.14-7.68-72.92-2.25-106-10-12.77-2.99-26.43-.29-38-3-14.66-.66-29.33-1.33-44-2-5.27-1.2-14.51.47-21-1-9.81-2.22-24.47-.98-36-1-22.62-.03-51.66.44-74-2-5.22-.57-16.01,1-23,1-18.52,0-42.42-2.87-59,1-21.28.63-48.03-2.08-68,2h-21c-19.23,4.36-43.1-.41-62,4h-23c-24.1,5-53.47,2.41-79,3-13.04,2.92-48,3.03-61,0h-22c-16.85-3.89-35.91-2.1-52-7-34.49-10.5-59.96-23.11-85-42-9.59-7.24-15.48-18.51-22-29-31.38-49.12-37.51-126.24-15-192,.9-2.12,4.24-5.13,5-7,2.7-6.61-.11-14.89,4-21,5.87-8.71,12.9.55,13-17-10.88-16.14,2.87-58.76,8-72,5.57-14.4,12.5-25.58,19-38,6.78-12.96,9.23-26.24,16-39,4.66-8.79,12.35-17.06,18-25,3.81-5.35,5.32-11.48,9-17,4.03-6.04,15.18-17.75,21-22,3.7-2.71,11.13-4.75,13-9v-10c2.57-3.89,2.41-9.28,5-13,4.11-5.9,10.94-8.82,17-13,3.33-3.33,6.67-6.67,10-10,51.54-40.91,80.91-35.16,129-4,34.48,21.14,81.67,34.54,123,48,12.43,4.05,30.93-.09,40-3,31.28-10.06,51.56-27.85,75-45,6.37-4.66,28.29-19.84,30-27-15.59-13.69-33.31-26.55-45-44-15.12-23.4-19.44-41.58-13-69,3.99-17.61,4.11-34.36,12-48,5.15-8.9,16.15-13.5,25-19,8.65-5.37,17.64-12.31,27-17,3-.67,6-1.33,9-2,12.69-5.52,28.42-11.54,42-16,15.33-3,30.67-6,46-9,5.16-1.16,12.3,1.32,16-1h0Z" fill-rule="evenodd"/>
</svg>