<?xml version="1.0" encoding="UTF-8"?>
<svg id="Layer_1" xmlns="http://www.w3.org/2000/svg" width="1763.28" height="859.05" version="1.1" viewBox="0 0 1763.28 859.05">
  <!-- Generator: Adobe Illustrator 29.6.1, SVG Export Plug-In . SVG Version: 2.1.1 Build 9)  -->
  <path d="M718.38.02c54.39-.62,108.55,10.89,146,33,4,1.33,8,2.66,12,4,12.43,7.62,25.37,15.32,37,24,8.59,6.41,10.97,16.85,26,17,3.83-5.05,11.29-8.87,20-9,6.94,6.56,17.51,9.02,24,16,5.61,6.03,6.96,21.72,8,29h6c2.17-1.43,5.6-.29,9-1,12.92-2.7,16.83,4.57,25,8,6.89,2.9,13.46.07,20,3,13.44,6.02,20.61,20.51,21,40,5.14,1.51,13.38,6.38,17,10,4.4-1.08,7.82-4.32,14-3,12.38,2.64,41.71,14.84,50,22,5.29,4.57,12.39,20.56,18,22,4.76-4.25,20.13-3.93,28-2,21.03,5.16,52.13,11.34,65,24,5.6,5.51,4.46,15.18,9,22,6.4,3.9,17.71.16,26,2,11.28,2.5,24.66,3.35,33,9,8.67,5.87,15.46,18.06,19,29,1.77,5.47,1.11,10.88,4,15,1.07.75.95.6,3,1,13.17-10.52,35.88,3.63,40,13,2.45,5.58,1.65,12.6,5,17,7.07,6.51,15.96,9.26,25,14,14.76,7.73,29.87,17.45,44,26,9.87,5.97,20.13,8.12,30,14,18.18,10.83,34.25,21.77,54,32,2.66,2.66,5.33,5.33,8,8,6.49,4.8,13.12,7.42,20,12,2.36,1.57,3.75,5.46,6,7,1.67.34,3.34.67,5,1,7.63,4.53,14.53,13.02,22,18,3.63,2.42,7.98,3.06,11,6,6.97,6.79,16.19,14.29,22,22,2.88,3.82,5.2,9.2,9,12,3.96,2.91,10.6,2.16,15,5,6.94,4.48,20.31,21.91,26,29,4.29,5.35,12.8,7.25,17,13,17.91,24.53,36.76,57.78,45,91,3.75,15.13-5.12,31.12-10,39-44.8,66.55-140.21,97.02-218,123-25.66,5.66-51.34,11.33-77,17-35.99,5.33-72,10.67-108,16-8,.34-16,.67-24,1-11.5,2.53-26.17,1.36-38,4h-23c-17.02,3.72-37.28-1.71-56,2-19.53,3.88-54.27,1-79,1-23.33-.33-46.67-.67-70-1-17.9,0-37.4,1.5-53-2h-16c-11.7-2.58-27.52-.43-39-3-15.33-.33-30.67-.67-46-1-34.33-7.61-72.46-5.37-106-13-39.33-3.33-78.67-6.67-118-10h-29c-9.22-2.01-22.35.58-33-1-17.16-2.06-38.84-.61-57-1-14.83-3.22-42.11-2.7-57,0-2.33-.33-4.67-.67-7-1-9.66.33-19.33.67-29,1-25.54,4.31-53.77-3.19-77,2h-24c-14.81,3.2-32.62.8-47,4h-20c-18.92,4.05-45.14,1-66,1-79.78.01-136.68-12.95-182-47-41.76-31.38-68.55-133.63-44-202,5.6-15.6,11.18-31.69,19-46,7.43-13.6,12.9-4.59,13-29-2.41-3.68-1.53-16.36-1-22,1.58-16.94,5.43-35.55,11-49,16.03-38.68,36.07-79.65,67-103,7.3-5.52,14.13-9.75,22-15,3.36-2.24,6.51-6.99,10-9,3.04-1.74,12.45-4.67,14-7v-11c-4.07-7.74,7.59-20.35,11-25,13.7-18.71,30.3-30.94,54-40,6.65-2.54,17.24-8.02,29-5,26.76,6.88,43.03,27.11,64,40,19.55,12.01,46.44,16.66,71,23,6.33.66,12.67,1.33,19,2,8.82,2.12,44.07,11.31,54,6,1-1.33,2-2.66,3-4,10.71-6.53,19.77-13.95,29-22,1-2,2-4,3-6,7.15-5.87,13.34-10.65,19-18,3.67-3.33,7.33-6.67,11-10,6.11-8.3,11.22-16.48,17-25,2.81-4.14,6.22-4.31,7-11-14.18-9.53-23.83-26.37-32-42-6.34-12.14-11.12-27.23-15-42-2.47-9.39.41-24.32,2-31,6.15-25.87,4.78-32.47,27-43,5.66-1,11.33-2,17-3,6.48-2.62,14.27-8.8,22-11h8c4.12-1.05,10.35-3.87,14-5h8c8.18-2.27,18.26-6.48,26-9,8.71-2.83,15.56-.48,25-3,5.13-1.37,13.84-3.64,19-5,8.26-2.18,36.84-.76,42-4h0Z" fill-rule="evenodd"/>
</svg>