<?xml version="1.0" encoding="UTF-8"?>
<svg id="Layer_1" xmlns="http://www.w3.org/2000/svg" width="1727.98" height="999.3" version="1.1" viewBox="0 0 1727.98 999.3">
  <!-- Generator: Adobe Illustrator 29.6.1, SVG Export Plug-In . SVG Version: 2.1.1 Build 9)  -->
  <path d="M908.12,98v3c2.71,1.64,4.54,4.43,7,6,3.55,2.27,7.84,2.41,11,5,1.33,2.33,2.67,4.67,4,7,3.54,4.2,9.89,5.3,14,9,2.42,2.18,5.18,6.39,8,8,2.72,1.55,5.29.44,8,2,7.33,4.23,10.07,12.64,21,14,1.65,10.42,21.39,22.91,29,29,6.46-1.81,15.01-4.99,22-7,25.23-7.26,43.64,10.48,48,28,3.48,14-2.65,26.58-3,39,4.89,3.38,4.92,6.04,14,6,6.73,4.14,13.91,1.47,23,2,2.92.17,5.9,1.51,8,2,5.54,1.3,15.01-.13,19-1,6.52-1.42,14.06.81,18,2,14.76,4.48,22.22,6.59,22,26-3.34,3.41-7.43,9.14-9,14,3.86,2.66,5.29,7.22,9,10,7.7,5.75,21.84,3.23,33,3,18.53-.39,34.03.82,45,8,6,6,12,12,18,18,3.75,5.74,4.74,14.91,10,19,5.83,4.53,15.35,5.74,22,9,5.04,2.47,9.3,8.08,14,11,10.1,6.29,19.93,9.95,28,18,5,4.98,12.1,12.37,15,19,2.35,5.36,1.11,13.25,6,16,3.15,1.95,7.87.8,12,2,7.86,2.28,24.29,9.26,28,16,3.37,6.12,1.29,14.59,5,20,1.49,2.17,4.85,2.39,7,4,1.75,1.32,14.63,16.85,16,19,3.38,5.28,3.5,13.09,9,16,2.33.34,4.67.67,7,1,4.01,1.71,7.39,6.07,11,8,4.74,2.54,8.94,2.9,13,6,7.81,5.97,13.11,16.14,21,22,24.87,18.48,49.24,35.17,76,52,14.03,8.82,27.41,21.33,40,32,1.71,1.45,2.11,4.67,4,6,2.78,1.95,6.41,1.85,9,4,4.95,4.13,2.17,7.53,12,8,2.5,1.65,11.77,2.14,16,5,3,3.34,6,6.67,9,10,30.99,23.8,44.07,39.41,54,78,27.37,91.77-32.28,144.06-88,178-14.51,8.84-30.7,12.95-47,20-66.4,28.71-149.13,41.46-227,59-38.33,2.33-76.67,4.67-115,7-9.99,2.21-23.24-.94-32,1h-37c-20.95,4.52-53.65,1-77,1-17.07,0-38.79,2.38-54-1-25.66-.34-51.33-.67-77-1-7.25-1.59-16.41-.02-25-2-8.03-1.85-16.65-4.07-25-6-16.28-3.77-33.63-1.57-49-5-15.33-3.42-32.3.25-47-3-21.33-.67-42.67-1.33-64-2-9.56-2.06-23.75-1-35-1-24.12,0-57.14-3.41-75,4-6.01,2.49-19.56.57-26,2h-37c-19.41.05-38.14,2-59,2-14.31,0-32.47-1.77-45,1-40.33.33-80.67.67-121,1-21.88,4.67-60.24,1-85,1-13.38,0-30.39,1.59-42-1-9.04-2.02-21.19.75-29-1-7.33-.33-14.67-.67-22-1-1.61-.57-3.42-3.31-5-4-12.22-5.38-28-3.95-40-9-35.56-14.95-72.68-29.69-98-55-26.38-26.38-42.66-78.53-37-127v-42c4.71-21.36,2.3-43.29,9-62,1.62-4.54,5.57-10.99,7-15,2.99-8.38,1.79-14.55,6-21,4.32-6.6,14.38-8,15-17,4.43-6.67,4.54-15.34,9-22,.77-1.15,3.17-1.03,4-2,.33-1.67.67-3.33,1-5,3.06-5.22,9.58-12.38,12-18-.33-1.67-.67-3.33-1-5,1.67-4.46,7.7-9.79,10-14,3.49-6.38,4.06-12.22,7-19,1.76-4.06,6.01-8.2,8-12,5.4-10.34,7.05-21.23,13-31,9.6-15.75,32.39-43.73,34-65,1.67-.33,3.33-.66,5-1,3.26-9.23,7.71-15.7,13-23,2.88-3.98,6.71-4.95,8-11-.34-.33-.67-.67-1-1-6.19-.77-9.23.15-15,1v-3c8.62-2.71,2.61-14.39,6-20-3.24-.83-1.53.49-3-2,4.79-3.16.85-3.94,3-9-2-1.39-2.06-1.35-3-4,2.68-.76,17.78-4.64,20-6,3.28-2,7.03-8.21,10-11v-5h3c15.58-23.26,22.95-9.74,28-18-.66-.67-1.33-1.33-2-2,2.97-1.74,4.63-3.8,7-6-.33-2-.67-4-1-6h15c2.09-.84,1.56-4.01,3-5h1c3-.34,6-.67,9-1,1.45-.62,3.99-3.42,6-4,12.58-3.59,23.12-.54,33-5-1.11-2.47-1.69-3.23-2-7h2c4.81,2.33,10.98-.31,15-3v4c9.01-1.1,6.2,2.59,16,4,1.4-2,1.35-2.06,4-3,3.58,4.96,11.95,6.58,20,7v4c1.73.6,3.15.89,6,1,2.94,1.2,5.47-1.76,9-3,2.53,5.6,5.14-.6,8,3-.33,1-.67,2-1,3,.66,5.94,4.87,9.44,11,10,.99-1.62,3.9-5.68,5-4,.89,1.41,1.09,5.6,2,7,1.18.81,1.68.78,4,1,1.42-.96,3.28-.98,6-1,1.37,2.54,1.92,3.5,2,8-1.18,1.76-1.14,3.25,0,5,1.67,5.36,7.55,10.43,14,11,4.11-3.19,15.1,1.89,21,3,1.64-3.5,2.46-5.2,7-6,4.4,2.68,8.54-2.28,14-3v-5c3.81-.8,3.93-1.78,9-2,.29-2.33.45-2.48,1-4,3.85.61,10.78-2.8,14-6,1.98,3.12,2.82,3.84,8,4-.04-5.03-1.04-6.42-2-10h3c1.3.88,2.47.89,5,1,.12-4.47.02-5.06,1-8,.34.33.67.67,1,1,2.17,1.88,1.2,2.22,5,3,4.51-4.76,4.52-6.69,6-14h2v4c5.81-1.21,5.21-.67,12,0,3.27-4.7,7.81-4.33,12-8,1.52-1.33.98-5.08,3-6,1.67.33,3.34.67,5,1,1-1.33,2-2.66,3-4,3.34-.33,6.67-.67,10-1,6.15-2.97,8.92-12.4,15-16,5.17-3.06,10.67-3.17,13-9-1.49-1.62-1.55-2.02-2-5h1c2.6,3.68,3.71,2.53,9,2,2.84-5.47,9.81-8.54,8-15,6.15-.35,4.35-1.98,8-4,.29,2.33.45,2.48,1,4,2.55-1.81,2.78-3.72,6-5,.44,1.15,1.16,4.7,2,2,1.78-2.81.45-7.76,1-10,2.38,2.24,1.75,3.18,6,4,4.38-7,7.91-14.54,8-26-2.48-1.98-2.92-4.52-6-6-1.19-.78-4.81-1.2-6-2-1.05-1.55-1.03-4.09-1-7,2.44-3.72-.28-7.68-1-10-.75-2.43,3.72-6.1,3-10-.17-.93-2.84-3.54-3-4-1.32-3.94,1.61-6.89-1-11-1.93-3.05-3.91-2.2-5-7h3v-2c.75-1.07.6-.95,1-3-.34-.33-.67-.67-1-1-4.02.13-5.47.54-7-2,4.1-6.39.62-16.55,4-20,1.18-.8,1.68-.77,4-1-.18-5.67-1.85-7.45-3-12,1.26-.65,2.07-1.09,3-2h-2c-.97.25-.38.78-1,0-.8-1.02-.36-.28-1-2,4.81-2.04,6.19-2.7,6-10,1.3-1.87,2.37-5.84,3-8-2-1.4-2.06-1.35-3-4,5.27-3.09,2.36-3.95,5-10,1-.67,2-1.33,3-2,.72-1.72-1-7-1-7,1.4-1.54,6.88-3.52,8-6,2.18-4.85-2.36-4.81,1-7,1.88,1.78.79,1.85,3,1,.8-1.02.35-.28,1-2-2.06-1.22-2.91-1.65-4-4,.33-.34.67-.67,1-1,2.53-.07,3.72-.12,5-1,.8-1.02.35-.28,1-2-1.75-.63-.97-.19-2-1,3.41-1.07,5.55-.58,7-4,.75-1.07.6-.95,1-3,5.51-1.18,4.02-3.62,11-4v-4c3.54-.72,2.48-1.23,6-2,.37-2.08.24-1.92,1-3,1-1,2-2,3-3,3.17,1.62,3.87,3.19,8,4,1.55-1.88,7.87-7.37,11-8,6.62,8.9,18.99-6.6,28-8,1.61,2.31,1.46,2.35,5,3,1.18-2.07.68-1.88,3-3v1c2.18,2.21,1.14,3,5,4,5.63-8.74,6.63-2.95,13-7,1.59-1.01.01-2.6,4-4,4.4,5.16,6.47,1.01,11,4,1.69,1.86,1.58,3.66,4,5,1.29-2.54,1.1-2.87,4-4,1.18,2.07.69,1.88,3,3,.86-2.95,1.36-3.79,4-5,2.93,1.67,5.81-.3,10,2,3.38,1.86,2.59,6.15,5,9,2.68,3.17,8.86,5.59,11,9,2.22,3.54,1.93,7.55,5,10h3c2.08,1.99,1.36,5.37,4,7,5.92,3.66,20.32,2.93,25,5,1,1.33,2,2.67,3,4h5c1.33,1.33,2.67,2.66,4,4h11c1.98,1.05,3.74,5.87,6,7h5c1,1.33,2,2.67,3,4,2.67.67,5.33,1.33,8,2,1.33,1.67,2.67,3.33,4,5,2.56,1.83,6.22.98,9,3,1.17.85,1.71,4.03,3,5,3.63,2.73,6.97,3.37,11,6,5.81,3.8,8.9,11.39,17,13h0Z" fill-rule="evenodd"/>
</svg>