<?xml version="1.0" encoding="UTF-8"?>
<svg id="Layer_1" xmlns="http://www.w3.org/2000/svg" width="1726.19" height="644.4" version="1.1" viewBox="0 0 1726.19 644.4">
  <!-- Generator: Adobe Illustrator 29.6.1, SVG Export Plug-In . SVG Version: 2.1.1 Build 9)  -->
  <path d="M1018.19.04c3.09-.09,6.33-.14,8,1,11.05,4.04,22.23,25.4,28,36,8.02,14.74,19.4,26.86,28,41,3.54,5.82,6.55,13.98,9,20,.67,3,1.33,6,2,9,2.09,3.06,7.89,3.85,11,6,11.98,8.27,24.71,14.35,38,22,30.09,17.32,62.03,36.25,93,53,17.89,9.67,35.26,16.38,53,26,7.35,3.99,15.72,10.13,24,13,6.33,2.2,7.95-.14,15,2,31.41,9.54,66.94,13.06,101,21,17.8,4.15,37.01,2.06,54,6h16c35.08,7.75,66.67-2.81,102,2,13.82,1.88,28.02-5.09,40,3,6.71,4.53,15.89,14.94,20,22,1,3.34,2,6.67,3,10,3,1,6,2,9,3,6.33,3.19,22.27,9.29,27,14,14.93,14.85,20.21,48.55,26,73,.33,18.67.67,37.34,1,56-1.13,5.07-3.26,14.97-2,21,6.82,32.58-18.99,79.11-32,97-6.73,9.24-16.74,15.23-25,23-67.66,67.56-226.51,59.61-335,58-10.22-2.04-32.85-1-48-1-45.33,0-90.67,0-136,0-18.25-3.99-43.81-1-64-1-35.51,0-84.67-3.96-115,3h-20c-13.62.75-32.66-.06-46,3h-40c-9.84,2.16-24.45,1-36,1-25-.33-50-.67-75-1-10.2-.34-25.43-3.36-37-1-10.68,2.18-33.11-2.26-48,1-9.25,2.02-23.07,1-34,1h-67c-23.14,0-60.84,3.64-81-1-12.18-2.8-28.04,1.52-39-1h-25c-15.14-3.39-34.31-.61-49-4-9-.33-18-.67-27-1-22.93-5.2-50.07-3.63-72-9-16.58-4.06-31.85-2.64-48-7-81.69-22.05-157.31-33.75-200-95-8.97-12.87-30.45-55.6-24-82,.79-3.21,3.22-7.28,4-10v-11c2.51-11.16,1.8-22.31,5-33,6.73-22.53,16.03-40.13,27-58,2.44-3.98,2.41-8.41,5-12,3.96-5.48,11.02-5.12,15-9,4.16-4.05,5.08-10.59,10-14,23.12-16.03,50.17-23.01,79-34,45.31-17.27,92.54-34.34,137-51,11.15-4.18,22.04-6.87,33-10,5-.67,10-1.33,15-2,4.46-1.94,9.15-7.39,14-9,7,.34,14,.67,21,1,18.4-5.04,38.32-11.84,58-17,15.19-3.98,35.58,1.43,44-9,2.79-4.44,2.06-10.89,5-15,5.44-7.61,20.19-8.78,32-10,3.69,3.94,9.03,9.59,16,10,5.7-10.62,41.26-33.19,62-28,4.07,1.02,7.08,3.29,12,4,3.32-5.85,7.67-13.17,13-17,8.7-6.25,38.61-17.84,54-13,7.35,2.31,10.56,9.49,18,12v-1c8.37-8.41,11.89-20.18,23-26,6.05-3.17,13.12-2.09,20-5,4.69-1.98,15.52-10.29,24-5,8.35,2.83,8.11,12.76,17,14,1.6-2.23,4.55-2.95,6-5,6.22-8.76,7.42-18.79,16-25,8.28-5.99,34.52-13.37,46-16,9,.33,18,.67,27,1,3.45.95,7.74,5.5,13,4,8.71-2.47,19.3-9.43,28-13,14.88-6.1,27.58-8.19,43-14,5.76-2.17,13.96-6.78,20-9,8.26-3.04,18.23.72,28-2,3.37-.94,8.43-4.04,12-5,4.87-1.3,11.48,1.23,15-1h0Z" fill-rule="evenodd"/>
</svg>